<svg xmlns="http://www.w3.org/2000/svg" viewBox="0 0 820 420" width="820" height="420">
  <rect width="820" height="420" fill="#0d1117"/>
  <text x="410.0" y="28" fill="#c9d1d9" font-size="16" font-weight="bold" text-anchor="middle" font-family="system-ui, -apple-system, sans-serif">Weekly Activity by Category</text>
  <text x="410.0" y="44" fill="#8b949e" font-size="11" font-weight="normal" text-anchor="middle" font-family="system-ui, -apple-system, sans-serif">Mar–Jul 2026 · 11 tracked weeks</text>
  <line x1="60" y1="340" x2="790" y2="340" stroke="#30363d" stroke-width="1"/>
  <text x="52" y="344" fill="#8b949e" font-size="10" font-weight="normal" text-anchor="end" font-family="system-ui, -apple-system, sans-serif">0</text>
  <line x1="60" y1="282" x2="790" y2="282" stroke="#30363d" stroke-width="1"/>
  <text x="52" y="286" fill="#8b949e" font-size="10" font-weight="normal" text-anchor="end" font-family="system-ui, -apple-system, sans-serif">20</text>
  <line x1="60" y1="224" x2="790" y2="224" stroke="#30363d" stroke-width="1"/>
  <text x="52" y="228" fill="#8b949e" font-size="10" font-weight="normal" text-anchor="end" font-family="system-ui, -apple-system, sans-serif">40</text>
  <line x1="60" y1="166" x2="790" y2="166" stroke="#30363d" stroke-width="1"/>
  <text x="52" y="170" fill="#8b949e" font-size="10" font-weight="normal" text-anchor="end" font-family="system-ui, -apple-system, sans-serif">60</text>
  <line x1="60" y1="108" x2="790" y2="108" stroke="#30363d" stroke-width="1"/>
  <text x="52" y="112" fill="#8b949e" font-size="10" font-weight="normal" text-anchor="end" font-family="system-ui, -apple-system, sans-serif">80</text>
  <line x1="60" y1="50" x2="790" y2="50" stroke="#30363d" stroke-width="1"/>
  <text x="52" y="54" fill="#8b949e" font-size="10" font-weight="normal" text-anchor="end" font-family="system-ui, -apple-system, sans-serif">100</text>
  <rect x="69.95454545454545" y="273.3" width="46.454545454545446" height="66.7" fill="#10b981" rx="2"/>
  <rect x="69.95454545454545" y="250.10000000000002" width="46.454545454545446" height="23.2" fill="#3b82f6" rx="2"/>
  <rect x="69.95454545454545" y="224.00000000000003" width="46.454545454545446" height="26.099999999999998" fill="#f59e0b" rx="2"/>
  <rect x="69.95454545454545" y="212.40000000000003" width="46.454545454545446" height="11.6" fill="#8b5cf6" rx="2"/>
  <text x="93.18181818181817" y="356" fill="#8b949e" font-size="10" font-weight="normal" text-anchor="middle" font-family="system-ui, -apple-system, sans-serif">W10</text>
  <rect x="136.3181818181818" y="270.4" width="46.454545454545446" height="69.6" fill="#10b981" rx="2"/>
  <rect x="136.3181818181818" y="218.2" width="46.454545454545446" height="52.199999999999996" fill="#f59e0b" rx="2"/>
  <rect x="136.3181818181818" y="195.0" width="46.454545454545446" height="23.2" fill="#8b5cf6" rx="2"/>
  <text x="159.54545454545453" y="356" fill="#8b949e" font-size="10" font-weight="normal" text-anchor="middle" font-family="system-ui, -apple-system, sans-serif">W11</text>
  <text x="225.9090909090909" y="356" fill="#8b949e" font-size="10" font-weight="normal" text-anchor="middle" font-family="system-ui, -apple-system, sans-serif">W12</text>
  <rect x="202.6818181818182" y="336" width="46.454545454545446" height="4" fill="#e5e7eb" rx="2"/>
  <rect x="269.0454545454545" y="293.6" width="46.454545454545446" height="46.4" fill="#10b981" rx="2"/>
  <rect x="269.0454545454545" y="206.60000000000002" width="46.454545454545446" height="87.0" fill="#3b82f6" rx="2"/>
  <rect x="269.0454545454545" y="116.70000000000002" width="46.454545454545446" height="89.9" fill="#f59e0b" rx="2"/>
  <rect x="269.0454545454545" y="105.10000000000002" width="46.454545454545446" height="11.6" fill="#8b5cf6" rx="2"/>
  <text x="292.27272727272725" y="356" fill="#8b949e" font-size="10" font-weight="normal" text-anchor="middle" font-family="system-ui, -apple-system, sans-serif">W13</text>
  <rect x="335.4090909090909" y="336.23" width="46.454545454545446" height="3.7700000000000005" fill="#10b981" rx="2"/>
  <rect x="335.4090909090909" y="285.19" width="46.454545454545446" height="51.040000000000006" fill="#3b82f6" rx="2"/>
  <rect x="335.4090909090909" y="231.54" width="46.454545454545446" height="53.65" fill="#f59e0b" rx="2"/>
  <rect x="335.4090909090909" y="230.09" width="46.454545454545446" height="1.45" fill="#8b5cf6" rx="2"/>
  <text x="358.6363636363636" y="356" fill="#8b949e" font-size="10" font-weight="normal" text-anchor="middle" font-family="system-ui, -apple-system, sans-serif">W22</text>
  <rect x="335.4090909090909" y="336" width="46.454545454545446" height="4" fill="#fbbf24" rx="2"/>
  <rect x="401.77272727272725" y="319.7" width="46.454545454545446" height="20.3" fill="#10b981" rx="2"/>
  <rect x="401.77272727272725" y="302.3" width="46.454545454545446" height="17.4" fill="#3b82f6" rx="2"/>
  <rect x="401.77272727272725" y="296.5" width="46.454545454545446" height="5.8" fill="#8b5cf6" rx="2"/>
  <text x="425.0" y="356" fill="#8b949e" font-size="10" font-weight="normal" text-anchor="middle" font-family="system-ui, -apple-system, sans-serif">W23</text>
  <rect x="468.13636363636357" y="328.4" width="46.454545454545446" height="11.6" fill="#10b981" rx="2"/>
  <rect x="468.13636363636357" y="252.99999999999997" width="46.454545454545446" height="75.4" fill="#3b82f6" rx="2"/>
  <rect x="468.13636363636357" y="215.29999999999995" width="46.454545454545446" height="37.7" fill="#f59e0b" rx="2"/>
  <rect x="468.13636363636357" y="203.69999999999996" width="46.454545454545446" height="11.6" fill="#8b5cf6" rx="2"/>
  <text x="491.3636363636363" y="356" fill="#8b949e" font-size="10" font-weight="normal" text-anchor="middle" font-family="system-ui, -apple-system, sans-serif">W24</text>
  <rect x="534.5" y="322.6" width="46.454545454545446" height="17.4" fill="#10b981" rx="2"/>
  <rect x="534.5" y="157.30000000000004" width="46.454545454545446" height="165.29999999999998" fill="#3b82f6" rx="2"/>
  <rect x="534.5" y="119.60000000000004" width="46.454545454545446" height="37.7" fill="#f59e0b" rx="2"/>
  <rect x="534.5" y="110.90000000000003" width="46.454545454545446" height="8.7" fill="#8b5cf6" rx="2"/>
  <text x="557.7272727272727" y="356" fill="#8b949e" font-size="10" font-weight="normal" text-anchor="middle" font-family="system-ui, -apple-system, sans-serif">W25</text>
  <rect x="600.8636363636364" y="337.1" width="46.454545454545446" height="2.9" fill="#10b981" rx="2"/>
  <rect x="600.8636363636364" y="299.40000000000003" width="46.454545454545446" height="37.7" fill="#3b82f6" rx="2"/>
  <rect x="600.8636363636364" y="267.50000000000006" width="46.454545454545446" height="31.9" fill="#f59e0b" rx="2"/>
  <rect x="600.8636363636364" y="261.70000000000005" width="46.454545454545446" height="5.8" fill="#8b5cf6" rx="2"/>
  <text x="624.0909090909091" y="356" fill="#8b949e" font-size="10" font-weight="normal" text-anchor="middle" font-family="system-ui, -apple-system, sans-serif">W26</text>
  <rect x="667.2272727272727" y="302.3" width="46.454545454545446" height="37.7" fill="#3b82f6" rx="2"/>
  <rect x="667.2272727272727" y="267.5" width="46.454545454545446" height="34.8" fill="#f59e0b" rx="2"/>
  <rect x="667.2272727272727" y="258.8" width="46.454545454545446" height="8.7" fill="#8b5cf6" rx="2"/>
  <text x="690.4545454545455" y="356" fill="#8b949e" font-size="10" font-weight="normal" text-anchor="middle" font-family="system-ui, -apple-system, sans-serif">W27</text>
  <rect x="733.5909090909091" y="273.3" width="46.454545454545446" height="66.7" fill="#3b82f6" rx="2"/>
  <rect x="733.5909090909091" y="238.5" width="46.454545454545446" height="34.8" fill="#f59e0b" rx="2"/>
  <rect x="733.5909090909091" y="226.9" width="46.454545454545446" height="11.6" fill="#8b5cf6" rx="2"/>
  <text x="756.8181818181819" y="356" fill="#8b949e" font-size="10" font-weight="normal" text-anchor="middle" font-family="system-ui, -apple-system, sans-serif">W28</text>
  <rect x="60" y="388" width="10" height="10" fill="#3b82f6" rx="2"/>
  <text x="74" y="396" fill="#8b949e" font-size="9" font-weight="normal" text-anchor="start" font-family="system-ui, -apple-system, sans-serif">Coding (commits)</text>
  <rect x="240" y="388" width="10" height="10" fill="#f59e0b" rx="2"/>
  <text x="254" y="396" fill="#8b949e" font-size="9" font-weight="normal" text-anchor="start" font-family="system-ui, -apple-system, sans-serif">Project Mgmt (issues + PRs)</text>
  <rect x="420" y="388" width="10" height="10" fill="#10b981" rx="2"/>
  <text x="434" y="396" fill="#8b949e" font-size="9" font-weight="normal" text-anchor="start" font-family="system-ui, -apple-system, sans-serif">Communication (meetings + contacts)</text>
  <rect x="600" y="388" width="10" height="10" fill="#8b5cf6" rx="2"/>
  <text x="614" y="396" fill="#8b949e" font-size="9" font-weight="normal" text-anchor="start" font-family="system-ui, -apple-system, sans-serif">Research (proposals + projects)</text>
  <text x="410.0" y="414" fill="#8b949e" font-size="9" font-weight="normal" text-anchor="middle" font-family="system-ui, -apple-system, sans-serif">W12 (Mar 16-22): no data · W22: 64-day catch-up shown as weekly average</text>
</svg>