<svg xmlns="http://www.w3.org/2000/svg" viewBox="0 0 820 420" width="820" height="420">
  <rect width="820" height="420" fill="#0d1117"/>
  <text x="410.0" y="28" fill="#c9d1d9" font-size="16" font-weight="bold" text-anchor="middle" font-family="system-ui, -apple-system, sans-serif">Weekly Activity by Category</text>
  <text x="410.0" y="44" fill="#8b949e" font-size="11" font-weight="normal" text-anchor="middle" font-family="system-ui, -apple-system, sans-serif">Mar–Jul 2026 · 11 tracked weeks</text>
  <line x1="60" y1="340" x2="790" y2="340" stroke="#30363d" stroke-width="1"/>
  <text x="52" y="344" fill="#8b949e" font-size="10" font-weight="normal" text-anchor="end" font-family="system-ui, -apple-system, sans-serif">0</text>
  <line x1="60" y1="282" x2="790" y2="282" stroke="#30363d" stroke-width="1"/>
  <text x="52" y="286" fill="#8b949e" font-size="10" font-weight="normal" text-anchor="end" font-family="system-ui, -apple-system, sans-serif">80</text>
  <line x1="60" y1="224" x2="790" y2="224" stroke="#30363d" stroke-width="1"/>
  <text x="52" y="228" fill="#8b949e" font-size="10" font-weight="normal" text-anchor="end" font-family="system-ui, -apple-system, sans-serif">160</text>
  <line x1="60" y1="166" x2="790" y2="166" stroke="#30363d" stroke-width="1"/>
  <text x="52" y="170" fill="#8b949e" font-size="10" font-weight="normal" text-anchor="end" font-family="system-ui, -apple-system, sans-serif">240</text>
  <line x1="60" y1="108" x2="790" y2="108" stroke="#30363d" stroke-width="1"/>
  <text x="52" y="112" fill="#8b949e" font-size="10" font-weight="normal" text-anchor="end" font-family="system-ui, -apple-system, sans-serif">320</text>
  <line x1="60" y1="50" x2="790" y2="50" stroke="#30363d" stroke-width="1"/>
  <text x="52" y="54" fill="#8b949e" font-size="10" font-weight="normal" text-anchor="end" font-family="system-ui, -apple-system, sans-serif">400</text>
  <rect x="69.95454545454545" y="323.325" width="46.454545454545446" height="16.675" fill="#10b981" rx="2"/>
  <rect x="69.95454545454545" y="317.525" width="46.454545454545446" height="5.8" fill="#3b82f6" rx="2"/>
  <rect x="69.95454545454545" y="311.0" width="46.454545454545446" height="6.5249999999999995" fill="#f59e0b" rx="2"/>
  <rect x="69.95454545454545" y="308.1" width="46.454545454545446" height="2.9" fill="#8b5cf6" rx="2"/>
  <text x="93.18181818181817" y="356" fill="#8b949e" font-size="10" font-weight="normal" text-anchor="middle" font-family="system-ui, -apple-system, sans-serif">W10</text>
  <rect x="136.3181818181818" y="322.6" width="46.454545454545446" height="17.4" fill="#10b981" rx="2"/>
  <rect x="136.3181818181818" y="309.55" width="46.454545454545446" height="13.049999999999999" fill="#f59e0b" rx="2"/>
  <rect x="136.3181818181818" y="303.75" width="46.454545454545446" height="5.8" fill="#8b5cf6" rx="2"/>
  <text x="159.54545454545453" y="356" fill="#8b949e" font-size="10" font-weight="normal" text-anchor="middle" font-family="system-ui, -apple-system, sans-serif">W11</text>
  <text x="225.9090909090909" y="356" fill="#8b949e" font-size="10" font-weight="normal" text-anchor="middle" font-family="system-ui, -apple-system, sans-serif">W12</text>
  <rect x="202.6818181818182" y="336" width="46.454545454545446" height="4" fill="#e5e7eb" rx="2"/>
  <rect x="269.0454545454545" y="328.4" width="46.454545454545446" height="11.6" fill="#10b981" rx="2"/>
  <rect x="269.0454545454545" y="306.65" width="46.454545454545446" height="21.75" fill="#3b82f6" rx="2"/>
  <rect x="269.0454545454545" y="284.17499999999995" width="46.454545454545446" height="22.475" fill="#f59e0b" rx="2"/>
  <rect x="269.0454545454545" y="281.275" width="46.454545454545446" height="2.9" fill="#8b5cf6" rx="2"/>
  <text x="292.27272727272725" y="356" fill="#8b949e" font-size="10" font-weight="normal" text-anchor="middle" font-family="system-ui, -apple-system, sans-serif">W13</text>
  <rect x="335.4090909090909" y="331.3" width="46.454545454545446" height="8.7" fill="#10b981" rx="2"/>
  <rect x="335.4090909090909" y="214.575" width="46.454545454545446" height="116.72500000000001" fill="#3b82f6" rx="2"/>
  <rect x="335.4090909090909" y="92.05" width="46.454545454545446" height="122.52499999999999" fill="#f59e0b" rx="2"/>
  <rect x="335.4090909090909" y="88.425" width="46.454545454545446" height="3.625" fill="#8b5cf6" rx="2"/>
  <text x="358.6363636363636" y="356" fill="#8b949e" font-size="10" font-weight="normal" text-anchor="middle" font-family="system-ui, -apple-system, sans-serif">W22</text>
  <rect x="335.4090909090909" y="336" width="46.454545454545446" height="4" fill="#fbbf24" rx="2"/>
  <rect x="401.77272727272725" y="334.925" width="46.454545454545446" height="5.075" fill="#10b981" rx="2"/>
  <rect x="401.77272727272725" y="330.575" width="46.454545454545446" height="4.35" fill="#3b82f6" rx="2"/>
  <rect x="401.77272727272725" y="329.125" width="46.454545454545446" height="1.45" fill="#8b5cf6" rx="2"/>
  <text x="425.0" y="356" fill="#8b949e" font-size="10" font-weight="normal" text-anchor="middle" font-family="system-ui, -apple-system, sans-serif">W23</text>
  <rect x="468.13636363636357" y="337.1" width="46.454545454545446" height="2.9" fill="#10b981" rx="2"/>
  <rect x="468.13636363636357" y="318.25" width="46.454545454545446" height="18.85" fill="#3b82f6" rx="2"/>
  <rect x="468.13636363636357" y="308.825" width="46.454545454545446" height="9.425" fill="#f59e0b" rx="2"/>
  <rect x="468.13636363636357" y="305.925" width="46.454545454545446" height="2.9" fill="#8b5cf6" rx="2"/>
  <text x="491.3636363636363" y="356" fill="#8b949e" font-size="10" font-weight="normal" text-anchor="middle" font-family="system-ui, -apple-system, sans-serif">W24</text>
  <rect x="534.5" y="335.65" width="46.454545454545446" height="4.35" fill="#10b981" rx="2"/>
  <rect x="534.5" y="294.325" width="46.454545454545446" height="41.324999999999996" fill="#3b82f6" rx="2"/>
  <rect x="534.5" y="284.9" width="46.454545454545446" height="9.425" fill="#f59e0b" rx="2"/>
  <rect x="534.5" y="282.72499999999997" width="46.454545454545446" height="2.175" fill="#8b5cf6" rx="2"/>
  <text x="557.7272727272727" y="356" fill="#8b949e" font-size="10" font-weight="normal" text-anchor="middle" font-family="system-ui, -apple-system, sans-serif">W25</text>
  <rect x="600.8636363636364" y="339.275" width="46.454545454545446" height="0.725" fill="#10b981" rx="2"/>
  <rect x="600.8636363636364" y="329.84999999999997" width="46.454545454545446" height="9.425" fill="#3b82f6" rx="2"/>
  <rect x="600.8636363636364" y="321.87499999999994" width="46.454545454545446" height="7.975" fill="#f59e0b" rx="2"/>
  <rect x="600.8636363636364" y="320.42499999999995" width="46.454545454545446" height="1.45" fill="#8b5cf6" rx="2"/>
  <text x="624.0909090909091" y="356" fill="#8b949e" font-size="10" font-weight="normal" text-anchor="middle" font-family="system-ui, -apple-system, sans-serif">W26</text>
  <rect x="667.2272727272727" y="330.575" width="46.454545454545446" height="9.425" fill="#3b82f6" rx="2"/>
  <rect x="667.2272727272727" y="321.875" width="46.454545454545446" height="8.7" fill="#f59e0b" rx="2"/>
  <rect x="667.2272727272727" y="319.7" width="46.454545454545446" height="2.175" fill="#8b5cf6" rx="2"/>
  <text x="690.4545454545455" y="356" fill="#8b949e" font-size="10" font-weight="normal" text-anchor="middle" font-family="system-ui, -apple-system, sans-serif">W27</text>
  <rect x="733.5909090909091" y="323.325" width="46.454545454545446" height="16.675" fill="#3b82f6" rx="2"/>
  <rect x="733.5909090909091" y="314.625" width="46.454545454545446" height="8.7" fill="#f59e0b" rx="2"/>
  <rect x="733.5909090909091" y="311.725" width="46.454545454545446" height="2.9" fill="#8b5cf6" rx="2"/>
  <text x="756.8181818181819" y="356" fill="#8b949e" font-size="10" font-weight="normal" text-anchor="middle" font-family="system-ui, -apple-system, sans-serif">W28</text>
  <rect x="60" y="388" width="10" height="10" fill="#3b82f6" rx="2"/>
  <text x="74" y="396" fill="#8b949e" font-size="9" font-weight="normal" text-anchor="start" font-family="system-ui, -apple-system, sans-serif">Coding (commits)</text>
  <rect x="240" y="388" width="10" height="10" fill="#f59e0b" rx="2"/>
  <text x="254" y="396" fill="#8b949e" font-size="9" font-weight="normal" text-anchor="start" font-family="system-ui, -apple-system, sans-serif">Project Mgmt (issues + PRs)</text>
  <rect x="420" y="388" width="10" height="10" fill="#10b981" rx="2"/>
  <text x="434" y="396" fill="#8b949e" font-size="9" font-weight="normal" text-anchor="start" font-family="system-ui, -apple-system, sans-serif">Communication (meetings + contacts)</text>
  <rect x="600" y="388" width="10" height="10" fill="#8b5cf6" rx="2"/>
  <text x="614" y="396" fill="#8b949e" font-size="9" font-weight="normal" text-anchor="start" font-family="system-ui, -apple-system, sans-serif">Research (proposals + projects)</text>
  <text x="410.0" y="414" fill="#8b949e" font-size="9" font-weight="normal" text-anchor="middle" font-family="system-ui, -apple-system, sans-serif">W12 (Mar 16-22): no data · W22: 64-day aggregated catch-up</text>
</svg>