<svg xmlns="http://www.w3.org/2000/svg" viewBox="0 0 820 340" width="820" height="340">
  <rect width="820" height="340" fill="#0d1117"/>
  <text x="410.0" y="28" fill="#c9d1d9" font-size="16" font-weight="bold" text-anchor="middle" font-family="system-ui, -apple-system, sans-serif">Communication Volume</text>
  <text x="410.0" y="44" fill="#8b949e" font-size="11" font-weight="normal" text-anchor="middle" font-family="system-ui, -apple-system, sans-serif">Emails scanned (inbox volume) and meetings identified (active engagement)</text>
  <line x1="60" y1="280" x2="790" y2="280" stroke="#30363d" stroke-width="1"/>
  <text x="52" y="284" fill="#8b949e" font-size="10" font-weight="normal" text-anchor="end" font-family="system-ui, -apple-system, sans-serif">0</text>
  <line x1="60" y1="223" x2="790" y2="223" stroke="#30363d" stroke-width="1"/>
  <text x="52" y="227" fill="#8b949e" font-size="10" font-weight="normal" text-anchor="end" font-family="system-ui, -apple-system, sans-serif">50</text>
  <line x1="60" y1="165" x2="790" y2="165" stroke="#30363d" stroke-width="1"/>
  <text x="52" y="169" fill="#8b949e" font-size="10" font-weight="normal" text-anchor="end" font-family="system-ui, -apple-system, sans-serif">100</text>
  <line x1="60" y1="108" x2="790" y2="108" stroke="#30363d" stroke-width="1"/>
  <text x="52" y="112" fill="#8b949e" font-size="10" font-weight="normal" text-anchor="end" font-family="system-ui, -apple-system, sans-serif">150</text>
  <line x1="60" y1="50" x2="790" y2="50" stroke="#30363d" stroke-width="1"/>
  <text x="52" y="54" fill="#8b949e" font-size="10" font-weight="normal" text-anchor="end" font-family="system-ui, -apple-system, sans-serif">200</text>
  <path d="M 60.0,173.05 141.11,163.85 222.22,192.6 303.33,225.83 384.44,231.7 465.56,171.9 546.67,147.75 627.78,186.85 708.89,280.0 790.0,154.65" fill="none" stroke="#10b981" stroke-width="2.5" stroke-linejoin="round" stroke-linecap="round"/>
  <path d="M 60.0,257.0 141.11,252.4 222.22,261.6 303.33,278.5 384.44,271.95 465.56,278.85 546.67,273.1 627.78,278.85 708.89,280.0 790.0,280.0" fill="none" stroke="#f59e0b" stroke-width="2.5" stroke-linejoin="round" stroke-linecap="round"/>
  <circle cx="60.0" cy="173.05" r="3" fill="#10b981"/>
  <circle cx="141.11" cy="163.85" r="3" fill="#10b981"/>
  <circle cx="222.22" cy="192.6" r="3" fill="#10b981"/>
  <circle cx="303.33" cy="225.83" r="3" fill="#10b981"/>
  <circle cx="384.44" cy="231.7" r="3" fill="#10b981"/>
  <circle cx="465.56" cy="171.9" r="3" fill="#10b981"/>
  <circle cx="546.67" cy="147.75" r="3" fill="#10b981"/>
  <circle cx="627.78" cy="186.85" r="3" fill="#10b981"/>
  <circle cx="708.89" cy="280.0" r="3" fill="#10b981"/>
  <circle cx="790.0" cy="154.65" r="3" fill="#10b981"/>
  <circle cx="60.0" cy="257.0" r="3" fill="#f59e0b"/>
  <circle cx="141.11" cy="252.4" r="3" fill="#f59e0b"/>
  <circle cx="222.22" cy="261.6" r="3" fill="#f59e0b"/>
  <circle cx="303.33" cy="278.5" r="3" fill="#f59e0b"/>
  <circle cx="384.44" cy="271.95" r="3" fill="#f59e0b"/>
  <circle cx="465.56" cy="278.85" r="3" fill="#f59e0b"/>
  <circle cx="546.67" cy="273.1" r="3" fill="#f59e0b"/>
  <circle cx="627.78" cy="278.85" r="3" fill="#f59e0b"/>
  <circle cx="708.89" cy="280.0" r="3" fill="#f59e0b"/>
  <circle cx="790.0" cy="280.0" r="3" fill="#f59e0b"/>
  <text x="60.0" y="296" fill="#8b949e" font-size="10" font-weight="normal" text-anchor="middle" font-family="system-ui, -apple-system, sans-serif">W10</text>
  <text x="141.11" y="296" fill="#8b949e" font-size="10" font-weight="normal" text-anchor="middle" font-family="system-ui, -apple-system, sans-serif">W11</text>
  <text x="222.22" y="296" fill="#8b949e" font-size="10" font-weight="normal" text-anchor="middle" font-family="system-ui, -apple-system, sans-serif">W13</text>
  <text x="303.33" y="296" fill="#8b949e" font-size="10" font-weight="normal" text-anchor="middle" font-family="system-ui, -apple-system, sans-serif">W22</text>
  <text x="384.44" y="296" fill="#8b949e" font-size="10" font-weight="normal" text-anchor="middle" font-family="system-ui, -apple-system, sans-serif">W23</text>
  <text x="465.56" y="296" fill="#8b949e" font-size="10" font-weight="normal" text-anchor="middle" font-family="system-ui, -apple-system, sans-serif">W24</text>
  <text x="546.67" y="296" fill="#8b949e" font-size="10" font-weight="normal" text-anchor="middle" font-family="system-ui, -apple-system, sans-serif">W25</text>
  <text x="627.78" y="296" fill="#8b949e" font-size="10" font-weight="normal" text-anchor="middle" font-family="system-ui, -apple-system, sans-serif">W26</text>
  <text x="708.89" y="296" fill="#8b949e" font-size="10" font-weight="normal" text-anchor="middle" font-family="system-ui, -apple-system, sans-serif">W27</text>
  <text x="790.0" y="296" fill="#8b949e" font-size="10" font-weight="normal" text-anchor="middle" font-family="system-ui, -apple-system, sans-serif">W28</text>
  <circle cx="560" cy="310" r="5" fill="#10b981"/>
  <text x="570" y="314" fill="#8b949e" font-size="10" font-weight="normal" text-anchor="start" font-family="system-ui, -apple-system, sans-serif">Emails scanned</text>
  <circle cx="560" cy="328" r="5" fill="#f59e0b"/>
  <text x="570" y="332" fill="#8b949e" font-size="10" font-weight="normal" text-anchor="start" font-family="system-ui, -apple-system, sans-serif">Meetings identified</text>
  <text x="410.0" y="338" fill="#8b949e" font-size="8" font-weight="normal" text-anchor="middle" font-family="system-ui, -apple-system, sans-serif">Email volume ≠ active communication — meetings/contacts are better engagement signals</text>
</svg>