<svg xmlns="http://www.w3.org/2000/svg" viewBox="0 0 820 340" width="820" height="340">
  <rect width="820" height="340" fill="#0d1117"/>
  <text x="410.0" y="28" fill="#c9d1d9" font-size="16" font-weight="bold" text-anchor="middle" font-family="system-ui, -apple-system, sans-serif">Communication Volume</text>
  <text x="410.0" y="44" fill="#8b949e" font-size="11" font-weight="normal" text-anchor="middle" font-family="system-ui, -apple-system, sans-serif">Emails scanned (inbox volume) and meetings identified (active engagement)</text>
  <line x1="60" y1="280" x2="790" y2="280" stroke="#30363d" stroke-width="1"/>
  <text x="52" y="284" fill="#8b949e" font-size="10" font-weight="normal" text-anchor="end" font-family="system-ui, -apple-system, sans-serif">0</text>
  <line x1="60" y1="223" x2="790" y2="223" stroke="#30363d" stroke-width="1"/>
  <text x="52" y="227" fill="#8b949e" font-size="10" font-weight="normal" text-anchor="end" font-family="system-ui, -apple-system, sans-serif">125</text>
  <line x1="60" y1="165" x2="790" y2="165" stroke="#30363d" stroke-width="1"/>
  <text x="52" y="169" fill="#8b949e" font-size="10" font-weight="normal" text-anchor="end" font-family="system-ui, -apple-system, sans-serif">250</text>
  <line x1="60" y1="108" x2="790" y2="108" stroke="#30363d" stroke-width="1"/>
  <text x="52" y="112" fill="#8b949e" font-size="10" font-weight="normal" text-anchor="end" font-family="system-ui, -apple-system, sans-serif">375</text>
  <line x1="60" y1="50" x2="790" y2="50" stroke="#30363d" stroke-width="1"/>
  <text x="52" y="54" fill="#8b949e" font-size="10" font-weight="normal" text-anchor="end" font-family="system-ui, -apple-system, sans-serif">500</text>
  <path d="M 60.0,237.22 141.11111111111111,233.54 222.22222222222223,245.04 303.33333333333337,81.74000000000001 384.44444444444446,260.68 465.55555555555554,236.76 546.6666666666667,227.1 627.7777777777778,242.74 708.8888888888889,280.0 790.0,229.86" fill="none" stroke="#10b981" stroke-width="2.5" stroke-linejoin="round" stroke-linecap="round"/>
  <path d="M 60.0,270.8 141.11111111111111,268.96 222.22222222222223,272.64 303.33333333333337,274.48 384.44444444444446,276.78 465.55555555555554,279.54 546.6666666666667,277.24 627.7777777777778,279.54 708.8888888888889,280.0 790.0,280.0" fill="none" stroke="#f59e0b" stroke-width="2.5" stroke-linejoin="round" stroke-linecap="round"/>
  <circle cx="60.0" cy="237.22" r="3" fill="#10b981"/>
  <circle cx="141.11111111111111" cy="233.54" r="3" fill="#10b981"/>
  <circle cx="222.22222222222223" cy="245.04" r="3" fill="#10b981"/>
  <circle cx="303.33333333333337" cy="81.74000000000001" r="3" fill="#10b981"/>
  <circle cx="384.44444444444446" cy="260.68" r="3" fill="#10b981"/>
  <circle cx="465.55555555555554" cy="236.76" r="3" fill="#10b981"/>
  <circle cx="546.6666666666667" cy="227.1" r="3" fill="#10b981"/>
  <circle cx="627.7777777777778" cy="242.74" r="3" fill="#10b981"/>
  <circle cx="708.8888888888889" cy="280.0" r="3" fill="#10b981"/>
  <circle cx="790.0" cy="229.86" r="3" fill="#10b981"/>
  <circle cx="60.0" cy="270.8" r="3" fill="#f59e0b"/>
  <circle cx="141.11111111111111" cy="268.96" r="3" fill="#f59e0b"/>
  <circle cx="222.22222222222223" cy="272.64" r="3" fill="#f59e0b"/>
  <circle cx="303.33333333333337" cy="274.48" r="3" fill="#f59e0b"/>
  <circle cx="384.44444444444446" cy="276.78" r="3" fill="#f59e0b"/>
  <circle cx="465.55555555555554" cy="279.54" r="3" fill="#f59e0b"/>
  <circle cx="546.6666666666667" cy="277.24" r="3" fill="#f59e0b"/>
  <circle cx="627.7777777777778" cy="279.54" r="3" fill="#f59e0b"/>
  <circle cx="708.8888888888889" cy="280.0" r="3" fill="#f59e0b"/>
  <circle cx="790.0" cy="280.0" r="3" fill="#f59e0b"/>
  <text x="60.0" y="296" fill="#8b949e" font-size="10" font-weight="normal" text-anchor="middle" font-family="system-ui, -apple-system, sans-serif">W10</text>
  <text x="141.11111111111111" y="296" fill="#8b949e" font-size="10" font-weight="normal" text-anchor="middle" font-family="system-ui, -apple-system, sans-serif">W11</text>
  <text x="222.22222222222223" y="296" fill="#8b949e" font-size="10" font-weight="normal" text-anchor="middle" font-family="system-ui, -apple-system, sans-serif">W13</text>
  <text x="303.33333333333337" y="296" fill="#8b949e" font-size="10" font-weight="normal" text-anchor="middle" font-family="system-ui, -apple-system, sans-serif">W22</text>
  <text x="384.44444444444446" y="296" fill="#8b949e" font-size="10" font-weight="normal" text-anchor="middle" font-family="system-ui, -apple-system, sans-serif">W23</text>
  <text x="465.55555555555554" y="296" fill="#8b949e" font-size="10" font-weight="normal" text-anchor="middle" font-family="system-ui, -apple-system, sans-serif">W24</text>
  <text x="546.6666666666667" y="296" fill="#8b949e" font-size="10" font-weight="normal" text-anchor="middle" font-family="system-ui, -apple-system, sans-serif">W25</text>
  <text x="627.7777777777778" y="296" fill="#8b949e" font-size="10" font-weight="normal" text-anchor="middle" font-family="system-ui, -apple-system, sans-serif">W26</text>
  <text x="708.8888888888889" y="296" fill="#8b949e" font-size="10" font-weight="normal" text-anchor="middle" font-family="system-ui, -apple-system, sans-serif">W27</text>
  <text x="790.0" y="296" fill="#8b949e" font-size="10" font-weight="normal" text-anchor="middle" font-family="system-ui, -apple-system, sans-serif">W28</text>
  <circle cx="560" cy="310" r="5" fill="#10b981"/>
  <text x="570" y="314" fill="#8b949e" font-size="10" font-weight="normal" text-anchor="start" font-family="system-ui, -apple-system, sans-serif">Emails scanned</text>
  <circle cx="560" cy="328" r="5" fill="#f59e0b"/>
  <text x="570" y="332" fill="#8b949e" font-size="10" font-weight="normal" text-anchor="start" font-family="system-ui, -apple-system, sans-serif">Meetings identified</text>
  <text x="410.0" y="338" fill="#8b949e" font-size="8" font-weight="normal" text-anchor="middle" font-family="system-ui, -apple-system, sans-serif">Email volume ≠ active communication — meetings/contacts are better engagement signals</text>
</svg>