<svg xmlns="http://www.w3.org/2000/svg" viewBox="0 0 820 400" width="820" height="400">
  <rect width="820" height="400" fill="#0d1117"/>
  <text x="410.0" y="28" fill="#c9d1d9" font-size="16" font-weight="bold" text-anchor="middle" font-family="system-ui, -apple-system, sans-serif">Work Distribution</text>
  <text x="410.0" y="44" fill="#8b949e" font-size="11" font-weight="normal" text-anchor="middle" font-family="system-ui, -apple-system, sans-serif">Total activity units: 410 across 9 weeks</text>
  <path d="M 200.0,70.0 A 130,130 0 0,1 255.8915079715454,317.3717995800809 L 234.39477413633563,272.22879974158826 A 80,80 0 0,0 200.0,120.0 Z" fill="#3b82f6"/>
  <text x="302.41833689429745" y="180.8594669939047" fill="#0d1117" font-size="11" font-weight="bold" text-anchor="middle" font-family="system-ui, -apple-system, sans-serif">43%</text>
  <path d="M 255.8915079715454,317.3717995800809 A 130,130 0 0,1 72.37791840040887,224.75084419140697 L 121.46333440025161,215.23128873317353 A 80,80 0 0,0 234.39477413633563,272.22879974158826 Z" fill="#f59e0b"/>
  <text x="152.68977802486285" y="297.73762796584543" fill="#0d1117" font-size="11" font-weight="bold" text-anchor="middle" font-family="system-ui, -apple-system, sans-serif">29%</text>
  <path d="M 72.37791840040887,224.75084419140697 A 130,130 0 0,1 135.28776526305356,87.25104579043608 L 160.17708631572526,130.6160281787299 A 80,80 0 0,0 121.46333440025161,215.23128873317353 Z" fill="#10b981"/>
  <text x="104.51904764867788" y="160.31490256294995" fill="#0d1117" font-size="11" font-weight="bold" text-anchor="middle" font-family="system-ui, -apple-system, sans-serif">20%</text>
  <path d="M 135.28776526305356,87.25104579043608 A 130,130 0 0,1 199.99999999999997,70.0 L 199.99999999999997,120.0 A 80,80 0 0,0 160.17708631572526,130.6160281787299 Z" fill="#8b5cf6"/>
  <text x="172.9535456724803" y="102.54316529523804" fill="#0d1117" font-size="11" font-weight="bold" text-anchor="middle" font-family="system-ui, -apple-system, sans-serif">8%</text>
  <text x="200" y="194" fill="#c9d1d9" font-size="22" font-weight="bold" text-anchor="middle" font-family="system-ui, -apple-system, sans-serif">410</text>
  <text x="200" y="214" fill="#8b949e" font-size="11" font-weight="normal" text-anchor="middle" font-family="system-ui, -apple-system, sans-serif">total units</text>
  <rect x="400" y="92" width="14" height="14" fill="#3b82f6" rx="3"/>
  <text x="420" y="102" fill="#c9d1d9" font-size="13" font-weight="normal" text-anchor="start" font-family="system-ui, -apple-system, sans-serif">Coding</text>
  <text x="420" y="118" fill="#8b949e" font-size="11" font-weight="normal" text-anchor="start" font-family="system-ui, -apple-system, sans-serif">176 units</text>
  <rect x="400" y="142" width="14" height="14" fill="#f59e0b" rx="3"/>
  <text x="420" y="152" fill="#c9d1d9" font-size="13" font-weight="normal" text-anchor="start" font-family="system-ui, -apple-system, sans-serif">Project Mgmt</text>
  <text x="420" y="168" fill="#8b949e" font-size="11" font-weight="normal" text-anchor="start" font-family="system-ui, -apple-system, sans-serif">119 units</text>
  <rect x="400" y="192" width="14" height="14" fill="#10b981" rx="3"/>
  <text x="420" y="202" fill="#c9d1d9" font-size="13" font-weight="normal" text-anchor="start" font-family="system-ui, -apple-system, sans-serif">Communication</text>
  <text x="420" y="218" fill="#8b949e" font-size="11" font-weight="normal" text-anchor="start" font-family="system-ui, -apple-system, sans-serif">81 units</text>
  <rect x="400" y="242" width="14" height="14" fill="#8b5cf6" rx="3"/>
  <text x="420" y="252" fill="#c9d1d9" font-size="13" font-weight="normal" text-anchor="start" font-family="system-ui, -apple-system, sans-serif">Research</text>
  <text x="420" y="268" fill="#8b949e" font-size="11" font-weight="normal" text-anchor="start" font-family="system-ui, -apple-system, sans-serif">34 units</text>
  <text x="410.0" y="388" fill="#8b949e" font-size="9" font-weight="normal" text-anchor="middle" font-family="system-ui, -apple-system, sans-serif">Excludes W12 (no data) and W22 (aggregated catch-up)</text>
</svg>