<svg xmlns="http://www.w3.org/2000/svg" viewBox="0 0 820 400" width="820" height="400">
  <rect width="820" height="400" fill="#0d1117"/>
  <text x="410.0" y="28" fill="#c9d1d9" font-size="16" font-weight="bold" text-anchor="middle" font-family="system-ui, -apple-system, sans-serif">Work Distribution</text>
  <text x="410.0" y="44" fill="#8b949e" font-size="11" font-weight="normal" text-anchor="middle" font-family="system-ui, -apple-system, sans-serif">Total activity units: 447.9 across 10 weeks</text>
  <path d="M 200.0,70.0 A 130,130 0 0,1 253.69084299042055,318.394650972829 L 233.0405187633357,272.8582467525102 A 80,80 0 0,0 200.0,120.0 Z" fill="#3b82f6"/>
  <text x="302.62986195688933" y="181.81641519704615" fill="#0d1117" font-size="11" font-weight="bold" text-anchor="middle" font-family="system-ui, -apple-system, sans-serif">43%</text>
  <path d="M 253.69084299042055,318.394650972829 A 130,130 0 0,1 70.29767323921229,208.79240768150876 L 120.18318353182295,205.41071241939 A 80,80 0 0,0 233.0405187633357,272.8582467525102 Z" fill="#f59e0b"/>
  <text x="146.1347380979243" y="294.1306471752023" fill="#0d1117" font-size="11" font-weight="bold" text-anchor="middle" font-family="system-ui, -apple-system, sans-serif">31%</text>
  <path d="M 70.29767323921229,208.79240768150876 A 130,130 0 0,1 139.51147271612268,84.92985588334552 L 162.77629090222933,129.18760362052032 A 80,80 0 0,0 120.18318353182295,205.41071241939 Z" fill="#10b981"/>
  <text x="108.3398286488375" y="152.7807361642562" fill="#0d1117" font-size="11" font-weight="bold" text-anchor="middle" font-family="system-ui, -apple-system, sans-serif">18%</text>
  <path d="M 139.51147271612268,84.92985588334552 A 130,130 0 0,1 199.99999999999997,70.0 L 199.99999999999997,120.0 A 80,80 0 0,0 162.77629090222933,129.18760362052032 Z" fill="#8b5cf6"/>
  <text x="174.83885312676557" y="102.0592491295874" fill="#0d1117" font-size="11" font-weight="bold" text-anchor="middle" font-family="system-ui, -apple-system, sans-serif">8%</text>
  <text x="200" y="194" fill="#c9d1d9" font-size="22" font-weight="bold" text-anchor="middle" font-family="system-ui, -apple-system, sans-serif">447.9</text>
  <text x="200" y="214" fill="#8b949e" font-size="11" font-weight="normal" text-anchor="middle" font-family="system-ui, -apple-system, sans-serif">total units</text>
  <rect x="400" y="92" width="14" height="14" fill="#3b82f6" rx="3"/>
  <text x="420" y="102" fill="#c9d1d9" font-size="13" font-weight="normal" text-anchor="start" font-family="system-ui, -apple-system, sans-serif">Coding</text>
  <text x="420" y="118" fill="#8b949e" font-size="11" font-weight="normal" text-anchor="start" font-family="system-ui, -apple-system, sans-serif">193.6 units</text>
  <rect x="400" y="142" width="14" height="14" fill="#f59e0b" rx="3"/>
  <text x="420" y="152" fill="#c9d1d9" font-size="13" font-weight="normal" text-anchor="start" font-family="system-ui, -apple-system, sans-serif">Project Mgmt</text>
  <text x="420" y="168" fill="#8b949e" font-size="11" font-weight="normal" text-anchor="start" font-family="system-ui, -apple-system, sans-serif">137.5 units</text>
  <rect x="400" y="192" width="14" height="14" fill="#10b981" rx="3"/>
  <text x="420" y="202" fill="#c9d1d9" font-size="13" font-weight="normal" text-anchor="start" font-family="system-ui, -apple-system, sans-serif">Communication</text>
  <text x="420" y="218" fill="#8b949e" font-size="11" font-weight="normal" text-anchor="start" font-family="system-ui, -apple-system, sans-serif">82.3 units</text>
  <rect x="400" y="242" width="14" height="14" fill="#8b5cf6" rx="3"/>
  <text x="420" y="252" fill="#c9d1d9" font-size="13" font-weight="normal" text-anchor="start" font-family="system-ui, -apple-system, sans-serif">Research</text>
  <text x="420" y="268" fill="#8b949e" font-size="11" font-weight="normal" text-anchor="start" font-family="system-ui, -apple-system, sans-serif">34.5 units</text>
  <text x="410.0" y="388" fill="#8b949e" font-size="9" font-weight="normal" text-anchor="middle" font-family="system-ui, -apple-system, sans-serif">Excludes W12 (no data) · W22 shown as weekly average</text>
</svg>